<svg width="34" height="34" viewBox="0 0 34 34" fill="none" xmlns="http://www.w3.org/2000/svg">
<path opacity="0.8" fill-rule="evenodd" clip-rule="evenodd" d="M24.767 20.6471H20.8957V33H11.6163V20.6471H7.09424V11.8088H11.6163V9.77574C11.6163 7.19103 12.3993 4.94807 13.9905 3.34754C15.5808 1.74779 17.7698 1 20.1714 1C21.2484 1 22.3287 1.10668 23.1203 1.20835C23.5208 1.25979 23.8577 1.31131 24.0966 1.35036C24.2163 1.36991 24.3118 1.38641 24.3791 1.39832C24.4127 1.40428 24.4392 1.40909 24.4582 1.41258L24.481 1.41678L24.4916 1.41877C24.4918 1.41881 24.4919 1.41884 24.142 3.26838C24.142 3.26838 22.1016 2.88235 20.1714 2.88235C16.1457 2.88235 13.4987 5.36397 13.4987 9.77574V13.6912H8.97659V18.7647H13.4987V31.1176H19.0134V18.7647H23.1494L23.9214 13.6912H19.0134V10.3824C19.0134 8.94853 19.6751 7.625 21.881 7.625H24.142V3.26838L24.4916 1.41877L26.0244 1.70876V9.50735H21.881C21.5146 9.50735 21.3015 9.56256 21.1916 9.60581C21.0915 9.64522 21.0574 9.68147 21.0437 9.69734C21.0072 9.73956 20.8957 9.91755 20.8957 10.3824V11.8088H26.1119L24.767 20.6471Z" fill="black"/>
</svg>
