<svg width="48" height="48" viewBox="0 0 48 48" fill="none" xmlns="http://www.w3.org/2000/svg">
<path d="M27.1431 27.0918C25.9167 28.1765 25.2504 29.1312 25.1217 30.0009H22.5531C22.4244 29.3002 21.9383 28.3333 20.6218 27.1059C19.8976 26.4329 19.0993 23.6473 19.9008 21.6057C20.4866 20.1192 21.8096 19.3657 23.8374 19.3657H23.9082C25.965 19.3657 27.2976 20.1418 27.8802 21.6713C28.6591 23.733 27.8577 26.458 27.1431 27.0918ZM25.2698 33.3636C25.1121 33.5976 24.7 34.0524 23.8728 34.0524C23.0424 34.0524 22.6304 33.5924 22.4791 33.3662V31.6618H25.2698V33.3636ZM23.9082 17.7045H23.8374C21.1369 17.7045 19.1895 18.8739 18.3558 20.9973C17.2711 23.7552 18.3172 27.2318 19.4888 28.3214C20.9212 29.6552 20.9308 30.3238 20.9212 30.4268C20.918 30.4374 20.9147 30.4493 20.9115 30.4599C20.889 30.4972 20.8729 30.5359 20.8632 30.5761C20.8568 30.5958 20.8472 30.6151 20.8439 30.6353C20.8343 30.6782 20.8278 30.7226 20.8246 30.768C20.8214 30.7853 20.8182 30.8024 20.8182 30.8201C20.8182 30.824 20.8182 30.8275 20.8182 30.8314V33.5792C20.8182 33.6929 20.8407 33.8059 20.8858 33.9101C21.1787 34.5797 22.1347 35.7136 23.8728 35.7136C25.6142 35.7136 26.5702 34.5806 26.8631 33.9114C26.9081 33.8065 26.9307 33.6935 26.9307 33.5792V30.8314C26.9307 30.8043 26.9242 30.7786 26.9242 30.7525C26.921 30.7325 26.921 30.7129 26.9178 30.6933C26.8952 30.5636 26.8438 30.4445 26.7697 30.3424C26.7633 30.337 26.7633 30.3302 26.7601 30.3247C26.744 30.1371 26.9725 29.4598 28.2407 28.3355C29.5797 27.152 30.407 23.6528 29.4317 21.0823C28.6077 18.9038 26.6474 17.7045 23.9082 17.7045Z" fill="#B680F1" stroke="#B680F1"/>
<path d="M23.8754 10.857C23.8723 10.857 23.8723 10.857 23.8723 10.857C23.4138 10.8592 23.0413 11.2327 23.0445 11.6915L23.0635 15.2378C23.0635 15.6953 23.4361 16.0643 23.8914 16.0643C23.8914 16.0643 23.8946 16.0643 23.8977 16.0643C24.3562 16.0624 24.7256 15.6886 24.7224 15.2301L24.7065 11.6839C24.7033 11.2263 24.3339 10.857 23.8754 10.857Z" fill="#B680F1" stroke="#B680F1"/>
<path d="M36.4891 23.4299C36.4891 22.9714 36.1179 22.5993 35.6587 22.5993H31.8589C31.3998 22.5993 31.0286 22.9714 31.0286 23.4299C31.0286 23.8887 31.3998 24.2605 31.8589 24.2605H35.6587C36.1179 24.2605 36.4891 23.8887 36.4891 23.4299Z" fill="#B680F1" stroke="#B680F1"/>
<path d="M16.7561 23.4295C16.7561 22.9714 16.3861 22.599 15.9284 22.599H12.0786C11.6209 22.599 11.2478 22.9714 11.2478 23.4295C11.2478 23.8881 11.6209 24.2603 12.0786 24.2603H15.9284C16.3861 24.2603 16.7561 23.8881 16.7561 23.4295Z" fill="#B680F1" stroke="#B680F1"/>
<path d="M17.0525 18.6929C17.2161 18.8594 17.4332 18.9427 17.6471 18.9427C17.8579 18.9427 18.0655 18.8638 18.2291 18.7058C18.5563 18.3859 18.5626 17.8598 18.2449 17.5314L15.5392 14.7653C15.2183 14.4372 14.6929 14.4318 14.3657 14.7524C14.0353 15.0724 14.029 15.5984 14.3499 15.9266L17.0525 18.6929Z" fill="#B680F1" stroke="#B680F1"/>
<path d="M29.5256 17.545C29.2147 17.8805 29.2308 18.4058 29.5677 18.7186C29.7264 18.8686 29.9304 18.9427 30.1344 18.9427C30.3546 18.9427 30.5781 18.854 30.74 18.6795L33.3245 15.913C33.6386 15.5778 33.6192 15.0525 33.2856 14.7394C32.952 14.4255 32.4241 14.444 32.1132 14.7785L29.5256 17.545Z" fill="#B680F1" stroke="#B680F1"/>
<path d="M6.14357 30.8002C5.9651 30.3784 5.47582 30.1814 5.05426 30.3633C4.6327 30.5433 4.43886 31.0313 4.61734 31.4535C4.91889 32.1585 5.26352 32.8536 5.64201 33.5204C5.79278 33.7896 6.07588 33.941 6.36513 33.941C6.5036 33.941 6.64514 33.9066 6.77437 33.833C7.17132 33.6069 7.31287 33.0997 7.08825 32.7006C6.73746 32.088 6.42358 31.4486 6.14357 30.8002Z" fill="#B680F1" stroke="#B680F1"/>
<path d="M9.56969 36.1347C9.26254 35.795 8.73512 35.7695 8.39695 36.0779C8.05567 36.386 8.03084 36.9109 8.33799 37.2507C8.853 37.8172 9.40527 38.3617 9.97923 38.8696C10.1375 39.0095 10.3329 39.0784 10.5284 39.0784C10.7579 39.0784 10.9875 38.9837 11.152 38.7982C11.456 38.4544 11.4219 37.9298 11.0806 37.6258C10.5501 37.1582 10.0413 36.6565 9.56969 36.1347Z" fill="#B680F1" stroke="#B680F1"/>
<path d="M4.92274 26.746C4.7941 26.0547 4.70528 25.3465 4.65934 24.6414C4.62565 24.1835 4.22746 23.8331 3.77108 23.8711C3.3147 23.9032 2.96857 24.2999 3.00227 24.7575C3.05434 25.523 3.15237 26.293 3.28714 27.0446C3.36065 27.4453 3.70981 27.7258 4.10493 27.7258C4.15393 27.7258 4.20295 27.7215 4.25502 27.7123C4.70528 27.6299 5.00544 27.1972 4.92274 26.746Z" fill="#B680F1" stroke="#B680F1"/>
<path d="M9.02243 7.92197C9.55225 7.92197 10.054 8.12734 10.4342 8.49759C10.8144 8.87532 11.0264 9.38238 11.0264 9.92622C11.0264 11.0314 10.1257 11.9305 9.02243 11.9305C8.55495 11.9305 8.09994 11.7662 7.74154 11.4652C7.28029 11.0837 7.01849 10.5224 7.01849 9.92622C7.01849 8.82109 7.91605 7.92197 9.02243 7.92197ZM5.68461 14.7363C5.80615 14.8018 5.94015 14.8326 6.07104 14.8326C6.36712 14.8326 6.65697 14.6715 6.80657 14.3898C7.01226 14.0011 7.23665 13.6203 7.47039 13.2447C7.95034 13.471 8.48327 13.5916 9.02243 13.5916C11.042 13.5916 12.6875 11.9473 12.6875 9.92622C12.6875 9.25553 12.5067 8.61665 12.1733 8.05692C12.5254 7.78858 12.887 7.52835 13.2547 7.28712C13.6381 7.03562 13.744 6.52108 13.4916 6.13743C13.2423 5.75379 12.728 5.64595 12.3416 5.8987C11.8897 6.19509 11.4502 6.51825 11.0201 6.85141C10.428 6.46745 9.73924 6.26085 9.02243 6.26085C6.99978 6.26085 5.35423 7.90513 5.35423 9.92622C5.35423 10.7677 5.64409 11.5683 6.16144 12.2107C5.86848 12.6697 5.58798 13.1366 5.33865 13.6144C5.12361 14.0198 5.27945 14.5228 5.68461 14.7363Z" fill="#B680F1" stroke="#B680F1"/>
<path d="M3.88148 21.1037C3.92439 21.1095 3.96426 21.1129 4.00717 21.1129C4.41179 21.1129 4.76428 20.818 4.82866 20.4067C4.93287 19.7087 5.07999 19.0099 5.26084 18.3309C5.38039 17.888 5.11679 17.4322 4.67539 17.3132C4.23093 17.1971 3.77421 17.4576 3.65467 17.9005C3.45849 18.6396 3.29909 19.3988 3.18261 20.1581C3.11517 20.6118 3.42782 21.0351 3.88148 21.1037Z" fill="#B680F1" stroke="#B680F1"/>
<path d="M37.5272 36.544C37.0398 37.0528 36.5163 37.5393 35.9764 37.9898C35.6264 38.2836 35.5773 38.8068 35.8717 39.1595C36.0353 39.3567 36.2709 39.4585 36.5097 39.4585C36.6962 39.4585 36.8827 39.395 37.0398 39.2658C37.6287 38.776 38.1947 38.2476 38.7247 37.6947C39.0454 37.3642 39.0323 36.8381 38.7018 36.5204C38.3747 36.2028 37.8446 36.2126 37.5272 36.544Z" fill="#B680F1" stroke="#B680F1"/>
<path d="M32.4463 40.3268C31.8178 40.6481 31.1635 40.9378 30.5059 41.1862C30.0783 41.3485 29.8612 41.8279 30.0232 42.2568C30.1495 42.5895 30.4637 42.7939 30.8006 42.7939C30.8978 42.7939 30.9982 42.7764 31.0922 42.7402C31.8081 42.47 32.5175 42.1551 33.2011 41.805C33.6092 41.5957 33.7712 41.0955 33.5639 40.687C33.3533 40.2789 32.8544 40.1166 32.4463 40.3268Z" fill="#B680F1" stroke="#B680F1"/>
<path d="M43.6815 24.4534C43.2287 24.4015 42.8189 24.741 42.7726 25.1974C42.7032 25.8991 42.5942 26.6043 42.4488 27.2938C42.3529 27.742 42.6371 28.1832 43.0866 28.2784C43.1461 28.2909 43.2023 28.2969 43.2585 28.2969C43.6452 28.2969 43.9889 28.0292 44.0716 27.6388C44.2302 26.8899 44.3492 26.1234 44.4252 25.362C44.4715 24.9049 44.1376 24.498 43.6815 24.4534Z" fill="#B680F1" stroke="#B680F1"/>
<path d="M42.2107 30.9066C41.7955 30.7132 41.3013 30.8954 41.1069 31.3115C40.8137 31.9507 40.4776 32.5807 40.1119 33.1843C39.8713 33.5768 39.9998 34.0871 40.3919 34.325C40.5237 34.4061 40.6753 34.4449 40.8203 34.4449C41.1036 34.4449 41.3771 34.3029 41.5319 34.0449C41.9273 33.3886 42.2931 32.704 42.616 32.0091C42.8071 31.5929 42.6259 31.0993 42.2107 30.9066Z" fill="#B680F1" stroke="#B680F1"/>
<path d="M26.4028 42.2341C25.7052 42.3311 24.9947 42.3906 24.2906 42.4104C23.8329 42.4236 23.4713 42.805 23.4841 43.2637C23.4969 43.7146 23.865 44.0708 24.313 44.0708C24.3226 44.0708 24.329 44.0708 24.3386 44.0705C25.1035 44.049 25.8748 43.9844 26.6333 43.8791C27.0877 43.8164 27.4045 43.3968 27.3405 42.942C27.2765 42.4879 26.8541 42.1682 26.4028 42.2341Z" fill="#B680F1" stroke="#B680F1"/>
<path d="M35.1724 7.94833C35.7343 8.36848 36.2799 8.82686 36.7994 9.30942C36.9595 9.45873 37.162 9.5332 37.3646 9.5332C37.5868 9.5332 37.8089 9.44434 37.9723 9.2689C38.2859 8.93369 38.2696 8.40835 37.9331 8.09503C37.3711 7.57131 36.7765 7.07371 36.1655 6.61729C35.7964 6.34286 35.2769 6.41835 34.9992 6.78655C34.728 7.15443 34.8032 7.67454 35.1724 7.94833Z" fill="#B680F1" stroke="#B680F1"/>
<path d="M23.256 4.1674C23.9618 4.15175 24.674 4.17125 25.3766 4.23065C25.3989 4.23225 25.4245 4.23352 25.4469 4.23352C25.8748 4.23352 26.2389 3.90648 26.274 3.47278C26.3123 3.01577 25.9738 2.61402 25.5171 2.57506C24.757 2.51151 23.9778 2.48627 23.2145 2.50735C22.7546 2.51885 22.3937 2.90049 22.4033 3.3591C22.416 3.81771 22.8025 4.19614 23.256 4.1674Z" fill="#B680F1" stroke="#B680F1"/>
<path d="M29.5294 5.05374C30.2019 5.26683 30.8712 5.52032 31.5147 5.80713C31.6246 5.85628 31.7411 5.87891 31.851 5.87891C32.1711 5.87891 32.4718 5.69591 32.6109 5.38647C32.7984 4.96741 32.6109 4.47657 32.1905 4.29C31.4889 3.97764 30.7645 3.70248 30.0338 3.47064C29.5973 3.33257 29.1284 3.57378 28.9894 4.01127C28.8536 4.44843 29.0961 4.91535 29.5294 5.05374Z" fill="#B680F1" stroke="#B680F1"/>
<path d="M16.7408 5.42273C16.8385 5.42273 16.9394 5.40603 17.034 5.36976C17.6963 5.12189 18.3743 4.90997 19.0554 4.73905C19.5001 4.62773 19.7713 4.17645 19.6609 3.7318C19.5506 3.2862 19.0965 3.01659 18.6518 3.12791C17.9107 3.31397 17.1696 3.54448 16.4506 3.81443C16.0186 3.97494 15.8042 4.45429 15.965 4.88349C16.088 5.21713 16.4033 5.42273 16.7408 5.42273Z" fill="#B680F1" stroke="#B680F1"/>
<path d="M42.9042 17.8924C42.7153 17.9554 42.5132 17.9872 42.301 17.9872C41.1708 17.9872 40.256 17.0701 40.256 15.9428C40.256 15.162 40.7101 14.4394 41.4194 14.1003C41.6945 13.9664 41.9895 13.8981 42.301 13.8981C43.4246 13.8981 44.3394 14.8153 44.3394 15.9428C44.3394 16.8245 43.7527 17.6243 42.9042 17.8924ZM42.301 12.2373C41.9994 12.2373 41.7044 12.2757 41.4194 12.346C41.2603 12.0898 41.0979 11.8362 40.9288 11.589C40.6703 11.2098 40.1533 11.1137 39.7754 11.3709C39.3943 11.6301 39.2981 12.1465 39.5566 12.5253C39.6859 12.7146 39.8119 12.9078 39.9345 13.1027C39.1059 13.7974 38.5955 14.8351 38.5955 15.9428C38.5955 17.9862 40.256 19.6481 42.301 19.6481C42.3706 19.6481 42.4436 19.6441 42.5165 19.6398C42.5993 20.077 42.6756 20.5168 42.7286 20.9589C42.7783 21.3805 43.1363 21.6904 43.5506 21.6904C43.5837 21.6904 43.6202 21.6881 43.6533 21.6844C44.1074 21.6298 44.4322 21.2161 44.3759 20.7611C44.3129 20.2268 44.2201 19.6951 44.114 19.1678C45.2641 18.5241 46 17.3071 46 15.9428C46 13.8995 44.3394 12.2373 42.301 12.2373Z" fill="#B680F1" stroke="#B680F1"/>
<path d="M19.5734 42.7183C19.3014 43.5992 18.4695 44.2138 17.549 44.2138C16.3819 44.2138 15.4298 43.2639 15.4298 42.0958C15.4298 41.8506 15.4709 41.6169 15.55 41.3936C15.8441 40.55 16.6475 39.9829 17.549 39.9829C18.713 39.9829 19.6619 40.9305 19.6619 42.0958C19.6619 42.3068 19.6303 42.5206 19.5734 42.7183ZM17.549 38.3219C16.2617 38.3219 15.0882 38.9732 14.4018 40.0044C14.0285 39.881 13.611 40.0351 13.4149 40.3922C13.1935 40.7942 13.339 41.299 13.7439 41.5201C13.766 41.5324 13.7881 41.5435 13.8103 41.5562C13.785 41.7333 13.7692 41.913 13.7692 42.0958C13.7692 44.1799 15.4646 45.875 17.549 45.875C19.2159 45.875 20.6678 44.8027 21.1644 43.1953C21.2688 42.834 21.3225 42.4643 21.3225 42.0958C21.3225 40.0148 19.6303 38.3219 17.549 38.3219Z" fill="#B680F1" stroke="#B680F1"/>
</svg>
