<svg width="49" height="48" viewBox="0 0 49 48" fill="none" xmlns="http://www.w3.org/2000/svg">
<path d="M31.2178 33.8654C30.7779 33.8595 30.3262 33.7119 30.2377 33.6469C30.0103 33.4049 29.7771 33.1332 29.5262 32.8409C27.5452 30.547 24.5605 27.087 16.2321 26.7799C16.2291 26.777 16.2232 26.777 16.2203 26.777C16.1848 26.7681 16.1494 26.7681 16.114 26.7622C16.0874 26.7622 16.0638 26.7534 16.0372 26.7534H13.4658V14.1649H14.8593C21.8739 14.1649 25.5288 11.9684 27.7755 9.89885V27.6922C27.7755 28.1203 28.1209 28.4686 28.5519 28.4686C28.98 28.4686 29.3254 28.1203 29.3254 27.6922V8.28986C29.4169 8.18948 29.5055 8.08912 29.5911 7.99169C29.8184 7.73189 30.0339 7.48683 30.217 7.28903C30.3233 7.20636 30.7779 7.05876 31.2178 7.0499V33.8654ZM15.2342 40.0504C15.1545 40.1567 15.0217 40.2216 14.8829 40.2216H9.22044C12.8783 34.8928 11.1778 30.4201 9.91423 28.3063H12.6864C12.6893 28.3063 12.6923 28.3063 12.6952 28.3063H14.8504C14.8534 28.3063 14.8563 28.3063 14.8593 28.3063C15.1191 28.3063 15.37 28.3122 15.6239 28.3181C19.1519 33.6646 16.5421 38.2879 15.2342 40.0504ZM4.54994 22.8918V18.0264C4.54994 15.8979 6.28586 14.1649 8.41445 14.1649H11.9129V26.7563H8.41445C6.28586 26.7563 4.54994 25.0204 4.54994 22.8918ZM31.2503 5.49996C30.6569 5.49996 29.6 5.68595 29.1069 6.20259C28.8914 6.43583 28.6641 6.69268 28.425 6.96725C26.4499 9.21392 23.4681 12.612 14.8593 12.612H12.6894C12.6864 12.612 12.6864 12.612 12.6835 12.612H8.41445C5.4297 12.612 3 15.0417 3 18.0264V22.8918C3 25.7525 5.23191 28.0967 8.04248 28.2886C8.9134 29.3602 12.1491 34.0868 7.31623 40.1862C7.08005 40.4844 7.03575 40.88 7.20108 41.2225C7.36641 41.562 7.70296 41.7745 8.08085 41.7745H14.8829C15.5117 41.7745 16.1081 41.4763 16.4801 40.9745C17.599 39.4717 20.7638 34.3525 17.4927 28.4096C24.1353 28.9735 26.5562 31.7722 28.3512 33.8565C28.6169 34.1636 28.8678 34.4529 29.1069 34.7098C29.5941 35.2294 30.6569 35.4183 31.2532 35.4183C32.6969 35.4183 32.7678 34.4765 32.7678 34.2876V6.63068C32.7678 6.44173 32.6969 5.49996 31.2503 5.49996Z" fill="#B680F1" stroke="#B680F1"/>
<path d="M45.2235 19.6825H35.7409C35.3102 19.6825 34.9644 20.0283 34.9644 20.459C34.9644 20.8868 35.3102 21.2356 35.7409 21.2356H45.2235C45.6542 21.2356 46 20.8868 46 20.459C46 20.0283 45.6542 19.6825 45.2235 19.6825Z" fill="#B680F1" stroke="#B680F1"/>
<path d="M35.742 16.4088C35.8146 16.4088 35.8902 16.3967 35.9658 16.3756L43.8591 13.9834C44.2704 13.8594 44.5003 13.4269 44.3763 13.0156C44.2523 12.6073 43.8168 12.3745 43.4085 12.4985L35.5152 14.8876C35.1069 15.0116 34.8741 15.4471 34.9981 15.8554C35.0979 16.1911 35.4063 16.4088 35.742 16.4088Z" fill="#B680F1" stroke="#B680F1"/>
<path d="M43.0737 26.7942L35.9782 24.5055C35.5706 24.3757 35.1328 24.5991 34.9999 25.0067C34.8701 25.4143 35.0935 25.8521 35.5011 25.982L42.5967 28.2707C42.6752 28.2948 42.7567 28.3069 42.8352 28.3069C43.1613 28.3069 43.4693 28.0986 43.5749 27.7694C43.7048 27.3618 43.4813 26.924 43.0737 26.7942Z" fill="#B680F1" stroke="#B680F1"/>
</svg>
