<svg width="50" height="48" viewBox="0 0 50 48" fill="none" xmlns="http://www.w3.org/2000/svg">
<path d="M8.75328 20.9659C8.88112 20.9659 9.0139 20.9969 9.12699 21.0578L11.9887 22.5599L11.4379 19.3782C11.3937 19.1181 11.4822 18.8521 11.6691 18.6677L13.9849 16.4148L10.7889 15.9501C10.5283 15.9122 10.3021 15.748 10.1841 15.5115L8.75328 12.6164L7.32737 15.511C7.20936 15.748 6.98319 15.9122 6.7226 15.9501L3.52659 16.4148L5.83755 18.6677C6.02931 18.8521 6.11291 19.1181 6.06865 19.3782L5.52289 22.5599L8.38451 21.0578C8.4976 20.9969 8.62544 20.9659 8.75328 20.9659ZM13.0507 24.8301C12.9229 24.8301 12.795 24.7996 12.6819 24.7376L8.75328 22.6755L4.83452 24.7376C4.55918 24.8797 4.23465 24.8566 3.9888 24.6767C3.73804 24.4972 3.61512 24.1928 3.6692 23.8919L4.41658 19.5227L1.24517 16.429C1.0239 16.2156 0.945224 15.8965 1.03865 15.6064C1.13207 15.3158 1.38776 15.1039 1.68769 15.0597L6.07355 14.4224L8.03542 10.4476C8.1731 10.1737 8.44843 10.0001 8.75328 10.0001C9.06304 10.0001 9.3384 10.1737 9.47608 10.4471L11.4379 14.4224L15.8239 15.0597C16.1238 15.1039 16.3794 15.3158 16.4729 15.6064C16.5663 15.8965 16.4876 16.2156 16.2664 16.429L13.095 19.5227L13.8423 23.8919C13.8964 24.1928 13.7735 24.4972 13.5227 24.6767C13.385 24.7784 13.2179 24.8301 13.0507 24.8301Z" fill="#B680F1" stroke="#B680F1"/>
<path d="M24.9978 20.9664C25.1232 20.9664 25.2537 20.9975 25.3741 21.0587L28.2285 22.5606L27.6817 19.3791C27.6365 19.1188 27.7269 18.8529 27.9125 18.6683L30.2251 16.4153L27.0295 15.9513C26.7687 15.9132 26.5429 15.7486 26.4275 15.5124L24.9978 12.6168L23.5681 15.5124C23.4527 15.7486 23.227 15.9132 22.9661 15.9513L19.7705 16.4153L22.0832 18.6683C22.2688 18.8529 22.3591 19.1188 22.3139 19.3791L21.7672 22.5606L24.6266 21.0587C24.742 20.9975 24.8724 20.9664 24.9978 20.9664ZM29.292 24.8306C29.1666 24.8306 29.0362 24.8 28.9208 24.7383L24.9978 22.676L21.0748 24.7383C20.8039 24.8808 20.4779 24.8572 20.2271 24.6776C19.9813 24.498 19.8609 24.1935 19.911 23.8925L20.6585 19.5236L17.483 16.4299C17.2673 16.2167 17.187 15.8976 17.2823 15.6072C17.3776 15.3162 17.6285 15.1045 17.9295 15.0604L22.319 14.4233L24.2754 10.4481C24.4109 10.1742 24.6918 10.0006 24.9978 10.0006C25.3038 10.0006 25.5848 10.1742 25.7202 10.4481L27.6767 14.4233L32.0662 15.0604C32.3672 15.1045 32.618 15.3162 32.7133 15.6072C32.8086 15.8976 32.7283 16.2167 32.5126 16.4299L29.3371 19.5236L30.0846 23.8925C30.1348 24.1935 30.0144 24.498 29.7686 24.6776C29.6281 24.779 29.4626 24.8306 29.292 24.8306Z" fill="#B680F1" stroke="#B680F1"/>
<path d="M16.8783 36.8976C17.0025 36.8976 17.1316 36.9284 17.2458 36.9895L20.1067 38.4914L19.5603 35.3097C19.5156 35.0495 19.6001 34.7843 19.7888 34.5995L22.1033 32.3461L18.9097 31.8822C18.6465 31.8439 18.423 31.6796 18.3038 31.4431L16.8783 28.548L15.4479 31.4431C15.3287 31.6796 15.1052 31.8439 14.8419 31.8822L11.6483 32.3461L13.9579 34.5995C14.1466 34.7843 14.236 35.0495 14.1913 35.3097L13.645 38.4914L16.5008 36.9895C16.62 36.9284 16.7492 36.8976 16.8783 36.8976ZM21.1696 40.7617C21.0454 40.7617 20.9163 40.7309 20.802 40.6693L16.8783 38.6072L12.9546 40.6693C12.6814 40.8114 12.3536 40.7881 12.1053 40.6083C11.8619 40.429 11.7377 40.1245 11.7874 39.8235L12.5374 35.4548L9.36362 32.3605C9.14508 32.1474 9.06563 31.8285 9.16 31.538C9.25437 31.2474 9.50767 31.0353 9.80568 30.9916L14.1962 30.3539L16.1532 26.379C16.2922 26.1054 16.5704 25.9315 16.8783 25.9315C17.1813 25.9315 17.4594 26.1054 17.5935 26.379L19.5554 30.3539L23.946 30.9916C24.244 31.0353 24.4973 31.2474 24.5916 31.538C24.686 31.8285 24.6066 32.1474 24.388 32.3605L21.2142 35.4548L21.9643 39.8235C22.0139 40.1245 21.8897 40.429 21.6464 40.6083C21.5073 40.7101 21.3384 40.7617 21.1696 40.7617Z" fill="#B680F1" stroke="#B680F1"/>
<path d="M33.1239 36.8968C33.2506 36.8968 33.3772 36.9278 33.4938 36.9891L36.3512 38.4912L35.8091 35.3096C35.7635 35.0491 35.8497 34.7837 36.0371 34.5992L38.3474 32.3457L35.1555 31.8816C34.8921 31.8436 34.6641 31.679 34.5476 31.4424L33.1239 28.5474L31.6952 31.4424C31.5736 31.679 31.3507 31.8436 31.0872 31.8816L27.8954 32.3457L30.2056 34.5992C30.3931 34.7837 30.4792 35.0491 30.4336 35.3096L29.8915 38.4912L32.749 36.9891C32.8655 36.9278 32.9922 36.8968 33.1239 36.8968ZM37.4202 40.761C37.2885 40.761 37.1618 40.7306 37.0453 40.6688L33.1239 38.6063L29.1975 40.6688C28.9289 40.8106 28.5996 40.7873 28.3514 40.608C28.1031 40.4281 27.9815 40.1241 28.0322 39.8227L28.782 35.4539L25.6054 32.3599C25.3875 32.1466 25.3115 31.8279 25.4027 31.5376C25.499 31.2468 25.7523 31.035 26.0512 30.9909L30.4387 30.3536L32.4045 26.3785C32.5362 26.1049 32.8149 25.9311 33.1239 25.9311C33.4279 25.9311 33.7065 26.1049 33.8433 26.3785L35.804 30.3536L40.1865 30.9909C40.4905 31.035 40.7438 31.2468 40.8401 31.5376C40.9313 31.8279 40.8502 32.1466 40.6323 32.3599L37.4608 35.4539L38.2106 39.8227C38.2612 40.1241 38.1346 40.4281 37.8914 40.608C37.7495 40.7093 37.5824 40.761 37.4202 40.761Z" fill="#B680F1" stroke="#B680F1"/>
<path d="M41.2465 20.9661C41.3745 20.9661 41.4972 20.9968 41.62 21.0582L44.4749 22.5603L43.9274 19.3785C43.8814 19.1181 43.9684 18.8526 44.1628 18.6679L46.4702 16.4147L43.2777 15.9506C43.0167 15.9123 42.7865 15.748 42.674 15.5117L41.2465 12.6164L39.814 15.5117C39.6963 15.748 39.4712 15.9123 39.2102 15.9506L36.0177 16.4147L38.3251 18.6679C38.5144 18.8526 38.6015 19.1181 38.5605 19.3785L38.0131 22.5603L40.8679 21.0582C40.9856 20.9968 41.1135 20.9661 41.2465 20.9661ZM45.539 24.8298C45.4111 24.8298 45.2832 24.7997 45.1656 24.7378L41.2465 22.6754L37.3224 24.7378C37.0512 24.88 36.7238 24.8565 36.4731 24.6769C36.2275 24.4973 36.1047 24.1929 36.1559 23.892L36.9028 19.5233L33.7308 16.429C33.5108 16.2162 33.434 15.8969 33.5261 15.6063C33.6233 15.3157 33.874 15.1039 34.1759 15.0599L38.5605 14.4224L40.5251 10.4471C40.6582 10.1739 40.9396 9.99993 41.2465 9.99993C41.5484 9.99993 41.8298 10.1739 41.9628 10.4471L43.9274 14.4224L48.3121 15.0599C48.6139 15.1039 48.8646 15.3157 48.9618 15.6063C49.0539 15.8969 48.9772 16.2162 48.7572 16.429L45.58 19.5233L46.3321 23.892C46.3832 24.1929 46.2604 24.4973 46.0097 24.6769C45.8716 24.7782 45.7079 24.8298 45.539 24.8298Z" fill="#B680F1" stroke="#B680F1"/>
</svg>
