<svg width="50" height="48" viewBox="0 0 50 48" fill="none" xmlns="http://www.w3.org/2000/svg">
<path d="M35.9304 44.4578C33.7512 44.4578 31.9701 42.6809 31.9701 40.4982C31.9701 38.3141 33.7512 36.5385 35.9304 36.5385C38.1166 36.5385 39.8908 38.3141 39.8908 40.4982C39.8908 42.6809 38.1166 44.4578 35.9304 44.4578ZM6.50398 42.5C4.31778 42.5 2.54366 40.7245 2.54366 38.5404C2.54366 36.3583 4.31778 34.5814 6.50398 34.5814C8.6832 34.5814 10.4573 36.3583 10.4573 38.5404C10.4573 40.7245 8.6832 42.5 6.50398 42.5ZM14.3827 25.2241C14.3827 23.0413 16.1638 21.2651 18.343 21.2651C20.5292 21.2651 22.3033 23.0413 22.3033 25.2241C22.3033 27.4082 20.5292 29.1837 18.343 29.1837C16.1638 29.1837 14.3827 27.4082 14.3827 25.2241ZM18.5665 7.50253C18.5665 5.31912 20.3476 3.54292 22.5268 3.54292C24.713 3.54292 26.4871 5.31912 26.4871 7.50253C26.4871 9.68524 24.713 11.4615 22.5268 11.4615C20.3476 11.4615 18.5665 9.68524 18.5665 7.50253ZM37.949 18.2464C37.949 20.4298 36.1679 22.206 33.9887 22.206C31.8025 22.206 30.0284 20.4298 30.0284 18.2464C30.0284 16.063 31.8025 14.2868 33.9887 14.2868C36.1679 14.2868 37.949 16.063 37.949 18.2464ZM35.9304 34.9949C34.5684 34.9949 33.3251 35.495 32.3612 36.3178L22.7363 28.5299C23.4278 27.6072 23.8469 26.4652 23.8469 25.2241C23.8469 24.5857 23.7282 23.9731 23.5326 23.4018L29.281 21.0822C30.2449 22.6768 31.9911 23.7489 33.9887 23.7489C37.02 23.7489 39.4856 21.2805 39.4856 18.2464C39.4856 15.2129 37.02 12.7445 33.9887 12.7445C32.7803 12.7445 31.6698 13.1378 30.7618 13.7971L27.1088 10.5472C27.6885 9.67477 28.0307 8.62776 28.0307 7.50253C28.0307 4.46839 25.5651 2 22.5268 2C19.4954 2 17.0298 4.46839 17.0298 7.50253C17.0298 10.536 19.4954 13.0044 22.5268 13.0044C23.8818 13.0044 25.1181 12.5106 26.082 11.6975L29.6512 14.8714C28.9248 15.8045 28.4847 16.9745 28.4847 18.2464C28.4847 18.7367 28.5546 19.2096 28.6733 19.6622L22.8132 22.0272C21.8144 20.6344 20.187 19.7222 18.343 19.7222C15.3117 19.7222 12.8461 22.1906 12.8461 25.2241C12.8461 28.2589 15.3117 30.7273 18.343 30.7273C19.5793 30.7273 20.7178 30.3138 21.6328 29.6244L31.3415 37.4731C30.9433 38.0724 30.664 38.7534 30.5313 39.4854L11.987 38.1597C11.7844 35.303 9.40262 33.0392 6.50398 33.0392C3.46565 33.0392 1 35.5076 1 38.5404C1 41.5759 3.46565 44.0443 6.50398 44.0443C9.13721 44.0443 11.3443 42.1787 11.8752 39.6984L30.4544 41.0276C30.7268 43.8145 33.0737 46 35.9304 46C38.9688 46 41.4343 43.5316 41.4343 40.4982C41.4343 37.4633 38.9688 34.9949 35.9304 34.9949Z" fill="#B680F1" stroke="#B680F1"/>
</svg>
