<svg width="48" height="48" viewBox="0 0 48 48" fill="none" xmlns="http://www.w3.org/2000/svg">
<path d="M42.323 23.1001C42.042 23.1001 41.7609 23.0477 41.4854 22.9441C40.8628 22.7072 40.3724 22.2058 40.1409 21.5533C40.0528 21.3202 40.0032 21.0607 40.0032 20.7824C40.0032 19.504 41.0446 18.4642 42.323 18.4642C43.6069 18.4642 44.6484 19.504 44.6484 20.7824C44.6484 22.0603 43.6069 23.1001 42.323 23.1001ZM34.9337 38.8255H14.066L8.8367 24.1344C8.84221 24.13 8.84771 24.1256 8.85322 24.1217C8.91934 24.0798 8.97446 24.0341 9.04059 23.9878C9.09018 23.9503 9.14527 23.9151 9.19487 23.8754C9.27752 23.8087 9.34917 23.7376 9.42631 23.6666C9.44835 23.6412 9.48144 23.6208 9.50348 23.5933C9.59715 23.4996 9.68531 23.3993 9.76796 23.2957C9.77347 23.2913 9.77897 23.2869 9.78448 23.2825C9.87265 23.1717 9.9553 23.0571 10.0324 22.9375L18.9537 26.8543C19.1686 26.9485 19.4166 26.9463 19.6315 26.8526C19.8464 26.7584 20.0117 26.5766 20.0833 26.3556L24.0563 14.4979C24.0728 14.4995 24.0893 14.499 24.1003 14.5007C24.2326 14.5133 24.3648 14.5221 24.5026 14.5221C24.6348 14.5221 24.7671 14.5133 24.8993 14.5007C24.9159 14.499 24.9324 14.4995 24.9434 14.4979L28.9164 26.3556C28.9935 26.5766 29.1588 26.7584 29.3737 26.8526C29.5831 26.9485 29.8311 26.9485 30.046 26.8543L38.9672 22.9359C39.0058 22.9926 39.0444 23.045 39.0829 23.099C39.127 23.1563 39.1656 23.2152 39.2097 23.2703C39.2482 23.3238 39.2979 23.3734 39.3419 23.4246C39.3915 23.4792 39.4356 23.5371 39.4907 23.5872C39.5348 23.6373 39.5899 23.6809 39.6395 23.7294C39.6946 23.7773 39.7442 23.8275 39.8048 23.8732C39.8544 23.9173 39.915 23.9564 39.9701 23.9983C40.0307 24.0402 40.0858 24.0842 40.1464 24.1239C40.1464 24.1278 40.152 24.13 40.1575 24.1344L34.9337 38.8255ZM4.3568 20.7824C4.3568 19.504 5.39275 18.4642 6.67114 18.4642C7.94954 18.4642 8.99097 19.504 8.99097 20.7824C8.99097 21.0602 8.94691 21.3197 8.84773 21.5748C8.82018 21.652 8.7871 21.728 8.75404 21.8024C8.53914 22.246 8.17546 22.6163 7.73463 22.8433C7.66299 22.8808 7.58587 22.9144 7.50873 22.9436C7.23321 23.0477 6.95217 23.1001 6.67114 23.1001C5.39275 23.1001 4.3568 22.0603 4.3568 20.7824ZM24.5026 8.21556C25.781 8.21556 26.8169 9.25537 26.8169 10.5338C26.8169 11.5355 26.1832 12.4188 25.2299 12.7346C24.8883 12.8514 24.4971 12.8806 24.1279 12.8222C24.0066 12.8024 23.8799 12.7726 23.7642 12.7324C22.8164 12.4188 22.1827 11.5355 22.1827 10.5338C22.1827 9.25537 23.2242 8.21556 24.5026 8.21556ZM42.323 16.7935C40.1244 16.7935 38.3335 18.5833 38.3335 20.7824C38.3335 20.9836 38.3501 21.1792 38.3776 21.3704L30.2113 24.9565L26.5304 13.9678C27.7262 13.263 28.4866 11.9698 28.4866 10.5338C28.4866 8.33459 26.7012 6.54539 24.5026 6.54539C22.3039 6.54539 20.5131 8.33459 20.5131 10.5338C20.5131 11.9709 21.2791 13.2652 22.4693 13.9684L18.7884 24.9565L10.611 21.3698C10.6441 21.1781 10.6606 20.9825 10.6606 20.7824C10.6606 18.5833 8.86977 16.7935 6.67114 16.7935C4.47252 16.7935 2.68164 18.5833 2.68164 20.7824C2.68164 22.9811 4.47252 24.7708 6.67114 24.7708C6.86952 24.7708 7.07342 24.7521 7.27179 24.7207L12.6884 39.9408C12.8097 40.2725 13.1237 40.4962 13.4764 40.4962H35.5232C35.8759 40.4962 36.19 40.2725 36.3113 39.9408L41.7224 24.7207C41.9207 24.7521 42.1191 24.7708 42.323 24.7708C44.5271 24.7708 46.318 22.9811 46.318 20.7824C46.318 18.5833 44.5271 16.7935 42.323 16.7935Z" fill="#B680F1" stroke="#B680F1"/>
<path d="M16.5794 19.4342C16.2269 19.4928 15.8627 19.3191 15.6933 18.9828L11.9457 11.464C11.7418 11.0507 11.9074 10.55 12.322 10.3438C12.7367 10.1386 13.235 10.3062 13.4441 10.7181L17.1918 18.2374C17.3955 18.6502 17.2248 19.1523 16.8155 19.3577C16.7405 19.395 16.6584 19.4211 16.5794 19.4342Z" fill="#B680F1" stroke="#B680F1"/>
<path d="M32.231 19.2765C32.1516 19.2572 32.0751 19.2259 32.0015 19.1828C31.6047 18.9473 31.4712 18.4343 31.7073 18.0377L35.9937 10.812C36.2298 10.4154 36.743 10.2852 37.1346 10.5189C37.5315 10.7539 37.6651 11.2669 37.4291 11.6635L33.1479 18.8905C32.9522 19.2129 32.5802 19.361 32.231 19.2765Z" fill="#B680F1" stroke="#B680F1"/>
</svg>
