<svg width="34" height="34" viewBox="0 0 34 34" fill="none" xmlns="http://www.w3.org/2000/svg">
<path opacity="0.8" d="M17.0356 8.78223C21.518 8.78223 25.2178 12.482 25.2178 16.9644C25.2178 21.518 21.518 25.1466 17.0356 25.1466C12.482 25.1466 8.85338 21.518 8.85338 16.9644C8.85338 12.482 12.482 8.78223 17.0356 8.78223ZM17.0356 22.3006C19.9527 22.3006 22.3006 19.9527 22.3006 16.9644C22.3006 14.0473 19.9527 11.6994 17.0356 11.6994C14.0473 11.6994 11.6994 14.0473 11.6994 16.9644C11.6994 19.9527 14.1184 22.3006 17.0356 22.3006ZM27.4234 8.49763C27.4234 9.56487 26.5696 10.4187 25.5024 10.4187C24.4351 10.4187 23.5813 9.56487 23.5813 8.49763C23.5813 7.43039 24.4351 6.57659 25.5024 6.57659C26.5696 6.57659 27.4234 7.43039 27.4234 8.49763ZM32.8308 10.4187C32.9731 13.0512 32.9731 20.9488 32.8308 23.5813C32.6885 26.1427 32.1193 28.3484 30.2694 30.2694C28.4195 32.1193 26.1427 32.6885 23.5813 32.8308C20.9488 32.9731 13.0512 32.9731 10.4187 32.8308C7.85728 32.6885 5.65165 32.1193 3.73061 30.2694C1.88072 28.3484 1.31152 26.1427 1.16922 23.5813C1.02693 20.9488 1.02693 13.0512 1.16922 10.4187C1.31152 7.85728 1.88072 5.5805 3.73061 3.73061C5.65165 1.88072 7.85728 1.31152 10.4187 1.16922C13.0512 1.02693 20.9488 1.02693 23.5813 1.16922C26.1427 1.31152 28.4195 1.88072 30.2694 3.73061C32.1193 5.5805 32.6885 7.85728 32.8308 10.4187ZM29.4156 26.3562C30.2694 24.2928 30.0559 19.3124 30.0559 16.9644C30.0559 14.6876 30.2694 9.70717 29.4156 7.57268C28.8464 6.22084 27.7792 5.08245 26.4273 4.5844C24.2928 3.73061 19.3124 3.94406 17.0356 3.94406C14.6876 3.94406 9.70717 3.73061 7.64383 4.5844C6.22084 5.1536 5.1536 6.22084 4.5844 7.57268C3.73061 9.70717 3.94406 14.6876 3.94406 16.9644C3.94406 19.3124 3.73061 24.2928 4.5844 26.3562C5.1536 27.7792 6.22084 28.8464 7.64383 29.4156C9.70717 30.2694 14.6876 30.0559 17.0356 30.0559C19.3124 30.0559 24.2928 30.2694 26.4273 29.4156C27.7792 28.8464 28.9176 27.7792 29.4156 26.3562Z" fill="black"/>
</svg>
