<svg width="53" height="48" viewBox="0 0 53 48" fill="none" xmlns="http://www.w3.org/2000/svg">
<path d="M49.0354 33C48.5081 33 48.0781 32.5858 48.0781 32.0744V10.167C48.0781 8.89028 47.1171 7.85086 45.9392 7.85086H6.88175C5.70386 7.85086 4.74284 8.89028 4.74284 10.167V31.9516C4.74284 32.463 4.31281 32.8768 3.78182 32.8768C3.25083 32.8768 2.8208 32.463 2.8208 31.9516V10.167C2.8208 7.86995 4.64188 6.00001 6.88175 6.00001H45.9392C48.1791 6.00001 50.0001 7.86995 50.0001 10.167V32.0744C50.0001 32.5858 49.5664 33 49.0354 33Z" fill="#B680F1" stroke="#B680F1"/>
<path d="M44.2685 32.4585C43.7718 32.4585 43.3661 32.0545 43.3661 31.5554V12.2915C43.3696 12.2369 43.3696 12.182 43.3696 12.1274C43.2961 12.1274 43.2192 12.1274 43.1457 12.1274H8.8596C8.78266 12.1274 8.70571 12.1274 8.63226 12.1274C8.63226 12.182 8.63226 12.2369 8.63226 12.2915V12.5443V31.4628C8.63226 31.9618 8.22654 32.3683 7.72639 32.3683C7.22975 32.3683 6.82404 31.9618 6.82404 31.4628L6.82056 12.2999C6.82056 11.62 6.81704 11.1272 7.21925 10.7249C7.62147 10.3185 8.16709 10.3185 8.8526 10.3185H43.1387C43.1422 10.3185 43.1457 10.3185 43.1457 10.3185C43.8662 10.3185 44.3803 10.3206 44.7826 10.7249C45.1813 11.1272 45.1778 11.62 45.1743 12.2999V12.5443V31.5554C45.1743 32.0545 44.7686 32.4585 44.2685 32.4585Z" fill="#B680F1" stroke="#B680F1"/>
<path d="M3.03867 36.9706C3.45839 38.5415 4.94614 39.6846 6.71497 39.6846H46.285C48.0614 39.6846 49.5604 38.5267 49.9688 36.9706H3.03867ZM46.285 41.4912H6.71497C3.56705 41.4912 1 39.0783 1 36.1117C1 35.6126 1.43097 35.1619 1.96312 35.1619H51.0407C51.5691 35.1619 52 35.5682 52 36.0673C52 39.0783 49.4367 41.4912 46.285 41.4912Z" fill="#B680F1" stroke="#B680F1"/>
<path d="M31.3469 28.368C31.2612 28.4544 31.1617 28.4671 31.1137 28.4671C31.0588 28.4671 30.9628 28.4544 30.877 28.368L28.7746 26.2649C28.8603 26.187 28.9427 26.1068 29.025 26.0248C29.1073 25.9425 29.1861 25.8605 29.2616 25.7782L31.3641 27.8817C31.4944 28.0103 31.4944 28.2209 31.3469 28.368ZM21.1674 24.7465C19.353 22.9339 19.353 19.9819 21.1674 18.1669C22.042 17.2909 23.2115 16.8087 24.4497 16.8087C25.6947 16.8087 26.8642 17.293 27.7422 18.171C29.289 19.7164 29.56 22.083 28.3939 23.934C28.2155 24.2204 28.0063 24.4876 27.7457 24.7465C27.4884 25.0055 27.214 25.2246 26.9191 25.4037C26.1817 25.8646 25.3277 26.1088 24.4531 26.1088C23.215 26.1088 22.0454 25.6245 21.1674 24.7465ZM32.6434 26.6037L30.2837 24.2413C31.4635 21.7945 30.9936 18.8638 29.0215 16.8927C27.8005 15.6717 26.1783 14.9998 24.4497 14.9998C22.7245 14.9998 21.1056 15.6717 19.8881 16.8886C17.3706 19.4071 17.3706 23.5063 19.8881 26.0248C21.1091 27.2461 22.7314 27.9177 24.4531 27.9177C25.4237 27.9177 26.3703 27.6923 27.2312 27.2818L29.5977 29.6463C30.0025 30.0507 30.5409 30.2739 31.1137 30.2739C31.683 30.2739 32.2215 30.0507 32.6434 29.6295C33.4768 28.7957 33.4768 27.4375 32.6434 26.6037Z" fill="#B680F1" stroke="#B680F1" stroke-width="0.4"/>
</svg>
