<svg width="34" height="34" viewBox="0 0 34 34" fill="none" xmlns="http://www.w3.org/2000/svg">
<path opacity="0.8" fill-rule="evenodd" clip-rule="evenodd" d="M17.026 6.77527C17.026 6.77527 25.8677 6.77527 28.1041 7.39939C29.3004 7.71145 30.2885 8.69964 30.6006 9.94788C31.2247 12.1323 31.2247 16.8132 31.2247 16.8132C31.2247 16.8132 31.2247 21.4421 30.6006 23.6785C30.2885 24.9268 29.3004 25.8629 28.1041 26.175C25.8677 26.7471 17.026 26.7471 17.026 26.7471C17.026 26.7471 8.1323 26.7471 5.89587 26.175C4.69964 25.8629 3.71145 24.9268 3.39939 23.6785C2.77527 21.4421 2.77527 16.8132 2.77527 16.8132C2.77527 16.8132 2.77527 12.1323 3.39939 9.94788C3.71145 8.69964 4.69964 7.71145 5.89587 7.39939C8.1323 6.77527 17.026 6.77527 17.026 6.77527ZM5.43323 5.68542C6.18281 5.4787 7.31529 5.35467 8.44315 5.26846C9.62931 5.1778 10.9805 5.11827 12.2443 5.07888C13.5111 5.03939 14.7051 5.0197 15.5815 5.00986C16.0201 5.00494 16.38 5.00248 16.6307 5.00124C16.7562 5.00062 16.8543 5.00031 16.9215 5.00016L17.0254 5L17.13 5.00016C17.1968 5.00031 17.2944 5.00062 17.4191 5.00124C17.6685 5.00248 18.0264 5.00494 18.4625 5.00986C19.3341 5.0197 20.5216 5.0394 21.782 5.07889C23.0394 5.11828 24.3842 5.17782 25.5655 5.26851C26.6892 5.35475 27.8178 5.47885 28.5668 5.68543C30.3808 6.16445 31.8406 7.63474 32.3154 9.48763C32.6835 10.7945 32.8424 12.6799 32.9194 14.1039C32.9597 14.8502 32.9798 15.524 32.9899 16.0111C32.9949 16.255 32.9974 16.4532 32.9987 16.5914C32.9993 16.6606 32.9997 16.7148 32.9998 16.7523L33 16.7959L33 16.8079L33 16.8125C33 16.8125 33 16.8132 31.2247 16.8132C33 16.8132 33 16.8135 33 16.8135L33 16.8304L32.9998 16.8736C32.9997 16.9108 32.9993 16.9645 32.9987 17.033C32.9974 17.17 32.9949 17.3663 32.9899 17.6083C32.9798 18.0914 32.9597 18.7604 32.9194 19.5034C32.8421 20.9272 32.6825 22.8081 32.3167 24.1334C31.8323 26.0323 30.335 27.4277 28.5522 27.8928L28.5441 27.8949C27.8089 28.083 26.6856 28.197 25.5543 28.2766C24.376 28.3595 23.0337 28.414 21.7774 28.4501C20.5183 28.4863 19.3317 28.5043 18.4608 28.5133C18.025 28.5179 17.6675 28.5201 17.4183 28.5212C17.2938 28.5218 17.1963 28.5221 17.1296 28.5222L17.0266 28.5224L16.9218 28.5222C16.8548 28.5221 16.7567 28.5218 16.6315 28.5212C16.381 28.5201 16.0214 28.5179 15.5832 28.5133C14.7074 28.5043 13.5144 28.4863 12.2489 28.4501C10.9861 28.4141 9.63741 28.3596 8.45437 28.2767C7.31871 28.1971 6.19156 28.0831 5.4559 27.8949L5.44775 27.8928C3.66499 27.4277 2.16775 26.0324 1.68328 24.1335C1.3175 22.8082 1.15794 20.9272 1.08063 19.5034C1.04028 18.7604 1.02018 18.0914 1.01014 17.6083C1.0051 17.3663 1.00257 17.17 1.0013 17.033C1.00066 16.9645 1.00033 16.9108 1.00017 16.8736L1.00002 16.8304L1 16.8139C1 16.8139 1 16.8132 2.77527 16.8132C1 16.8132 1 16.8129 1 16.8129L1.00002 16.7959L1.00017 16.7523C1.00033 16.7148 1.00066 16.6606 1.00129 16.5914C1.00257 16.4532 1.0051 16.255 1.01013 16.0111C1.02017 15.524 1.04026 14.8502 1.0806 14.1039C1.15757 12.6799 1.31654 10.7944 1.68466 9.48756C2.15944 7.63469 3.6192 6.16443 5.43323 5.68542ZM21.4989 16.8132L14.1134 12.6004V21.026L21.4989 16.8132Z" fill="black"/>
</svg>
