<svg width="366" height="89" viewBox="0 0 366 89" fill="none" xmlns="http://www.w3.org/2000/svg">
<path fill-rule="evenodd" clip-rule="evenodd" d="M108.36 70.4298H72.4099L62.8098 88.4398L50.0598 70.3798H0.589844L11.1598 50.5398H4.85984L15.4398 30.6898H1.03984L16.9498 0.779766H160.24L160.23 0.799765H204.63H253.43L253.46 0.759766H298.8L298.77 0.799765H364.21L353.64 20.6498H365.93L339.41 70.4498H310.25H305.26H295.48H228.58H196H108.35L108.36 70.4298Z" fill="#6E00E2"/>
<path fill-rule="evenodd" clip-rule="evenodd" d="M171.83 66.4298H115.03L115.04 66.4098H94.9L105.38 46.5998H100.44L89.96 66.4098H70L62.33 80.7898L52.14 66.3598H7.29004L17.86 46.5198H11.56L22.14 26.6698H7.73004L19.36 4.79978H90.55H153.54L153.53 4.81978H204.63H230.5L219.93 24.6698H224.97L235.54 4.81978H255.85L255.87 4.77979H292.11L292.09 4.81978H357.52L346.94 24.6698H359.23L337 66.4298H311.79L321.8 46.5698H310.71L300.01 66.4298H274.27H228.58H202.7L213.29 46.5998H208.3L197.8 66.4298H171.83Z" fill="black"/>
<path fill-rule="evenodd" clip-rule="evenodd" d="M190.11 30.1595L174.25 60.4395H125L133.37 44.7095H145.61L142.66 50.3395H167.24L172.53 40.2395H135.88L143.79 25.1395H156.08L153.45 30.1395H165.52H190.11V30.1595ZM151.35 10.8095L146.16 20.7195H182.55L180.57 24.5195H193.08L194.97 20.8995L200.26 10.8095H151.35ZM220.52 10.8095L215.25 20.7095H202.96L208.23 10.8095H220.52ZM251.41 10.8095L224.98 60.4395H212.69L223.27 40.6095H204.69L194.19 60.4395H181.8L200.61 25.1195H212.9L209.95 30.6595H228.56L239.13 10.8095H251.41ZM82.2898 30.6195H69.9998L80.5698 10.7895H22.9598L17.6998 20.6795H62.9998L57.6998 30.6195H39.1098L42.0598 25.0895H29.7698L21.5398 40.5395H64.7098L59.4198 50.4595H34.8498L37.7998 44.9295H25.5098L17.2798 60.3795H17.2898H54.1498H55.2498L61.6198 69.4095L82.2898 30.6195ZM88.0898 10.7895L82.8198 20.6895H126L120.7 30.6395H102.1L105.02 25.1495H92.7398L73.9598 60.4195H86.3498L96.8298 40.6095H115.33L104.85 60.4195H117.14L143.57 10.7895H88.0898ZM285.82 30.7095H261.12L264.07 25.1795H251.78L243.55 40.6095H280.55L285.82 30.7095ZM282.14 10.7695H259.47L254.13 20.7795H276.81L282.14 10.7695ZM292.48 44.9795H304.77L296.43 60.4395H284.24L292.48 44.9795ZM328.78 46.0495L331.69 40.5895H288.52L296.75 25.1295H309.04L306.09 30.6695H324.69L329.99 20.7195H284.69L289.95 10.8195H347.56L336.99 30.6695H349.28L333.4 60.4395H321.52L328.78 46.0495ZM281.7 50.5295L278.74 56.0695L276.41 60.4395H233L241.23 45.0095H253.52L250.57 50.5295H281.7Z" fill="white"/>
</svg>
