<svg width="16" height="14" viewBox="0 0 16 14" fill="none" xmlns="http://www.w3.org/2000/svg">
<path d="M0.865845 10.4266C0.387552 10.7027 0.223677 11.3143 0.499819 11.7926C0.775962 12.2709 1.38755 12.4348 1.86584 12.1586L0.865845 10.4266ZM15.8502 3.74654C15.9932 3.21308 15.6766 2.66474 15.1431 2.5218L6.44978 0.192427C5.91631 0.0494853 5.36797 0.366068 5.22503 0.899534C5.08209 1.433 5.39867 1.98134 5.93214 2.12428L13.6595 4.19483L11.589 11.9222C11.4461 12.4557 11.7626 13.004 12.2961 13.147C12.8296 13.2899 13.3779 12.9733 13.5208 12.4399L15.8502 3.74654ZM1.86584 12.1586L15.3843 4.35375L14.3843 2.6217L0.865845 10.4266L1.86584 12.1586Z" fill="white"/>
</svg>
