<svg width="49" height="48" viewBox="0 0 49 48" fill="none" xmlns="http://www.w3.org/2000/svg">
<path d="M7.15066 39.217L3.27267 43.0974C2.90911 43.4555 2.90911 44.0372 3.27267 44.3971C3.44839 44.5759 3.68472 44.6667 3.92103 44.6667C4.15735 44.6667 4.39367 44.5759 4.5694 44.3971L8.45342 40.5161C8.81092 40.1586 8.81092 39.5751 8.45342 39.217C8.08986 38.8564 7.50816 38.8564 7.15066 39.217Z" fill="#B680F1" stroke="#B680F1"/>
<path d="M13.4352 40.5503L9.55084 44.431C9.19106 44.789 9.19106 45.3725 9.55084 45.7305C9.73377 45.9116 9.96551 46 10.2033 46C10.4411 46 10.6729 45.9116 10.8558 45.7305L14.7341 41.8498C15.0938 41.4918 15.0938 40.9089 14.7341 40.5503C14.3743 40.1905 13.795 40.1905 13.4352 40.5503Z" fill="#B680F1" stroke="#B680F1"/>
<path d="M5.85884 34.0007C6.09562 34.0007 6.33239 33.9097 6.51453 33.7312L10.394 29.8504C10.7522 29.4904 10.7522 28.9088 10.394 28.5487C10.0358 28.1905 9.45302 28.1905 9.09481 28.5487L5.20921 32.4295C4.851 32.7895 4.851 33.3705 5.20921 33.7312C5.39134 33.9097 5.62813 34.0007 5.85884 34.0007Z" fill="#B680F1" stroke="#B680F1"/>
<path d="M10.8554 25.3721C11.0873 25.3721 11.3252 25.2818 11.5022 25.1024L15.383 21.2222C15.743 20.8622 15.743 20.2807 15.383 19.9207C15.023 19.5625 14.4433 19.5625 14.0833 19.9207L10.2025 23.8008C9.84249 24.1615 9.84249 24.7424 10.2025 25.1024C10.3795 25.2818 10.6174 25.3721 10.8554 25.3721Z" fill="#B680F1" stroke="#B680F1"/>
<path d="M26.7123 29.2246L19.0458 21.5618C20.6809 19.0053 27.6053 8.96462 37.7372 5.24269L43.0264 10.5338C39.3032 20.6549 29.2657 27.5913 26.7123 29.2246ZM33.0895 33.5496L29.272 29.7378C30.7059 28.7459 32.6681 27.2655 34.7624 25.3479C35.209 28.0139 34.253 31.6968 33.0895 33.5496ZM23.14 30.8943L21.4546 29.2107C21.4546 29.2107 21.4546 29.2088 21.4546 29.2063L19.0647 26.8183C19.0647 26.8164 19.0583 26.8145 19.0583 26.8127L17.3791 25.1309L18.6936 23.8108L24.4608 29.5768L23.14 30.8943ZM13.7818 34.4892C13.8384 34.0427 13.939 33.6062 14.0522 33.1798C14.5805 31.1679 15.4987 29.7258 16.2471 28.8221C16.2848 28.7661 16.3289 28.7038 16.3666 28.6491C16.3603 28.6655 16.354 28.6837 16.3477 28.6975C16.9326 28.0139 17.3791 27.6736 17.3791 27.6736L19.0458 29.3994C19.0458 29.4019 19.7376 30.0635 20.92 31.295C17.4106 33.4754 16.1213 33.9785 15.0459 34.2301C14.6308 34.3427 14.2157 34.437 13.7818 34.4892ZM14.7188 15.1846C16.5741 14.0198 20.2596 13.0645 22.9262 13.5073C21.008 15.601 19.5238 17.5669 18.5364 18.9971L14.7188 15.1846ZM44.41 3.86095C44.3409 5.48796 44.0704 7.0571 43.6616 8.56399L39.7057 4.61126C41.2151 4.20057 42.7811 3.93327 44.41 3.86095ZM46.2716 2.91946C46.2716 2.41003 45.8628 1.99999 45.3534 1.99999C36.5045 1.99999 29.3034 7.05334 24.379 11.9822C20.7627 10.8011 14.8132 12.3224 12.6874 14.4507C12.3289 14.8085 12.3289 15.3921 12.6874 15.75L17.4986 20.56C17.2659 20.9241 17.1276 21.1593 17.0836 21.2361C16.876 21.5964 16.9389 22.053 17.2282 22.3467L17.398 22.5115L15.4232 24.4813C15.0647 24.8391 15.0647 25.4228 15.4232 25.7806L15.9264 26.2793C14.6308 27.7177 11.8761 31.2805 11.8761 35.4773C11.8761 35.986 12.2849 36.3967 12.7944 36.3967C16.9892 36.3967 20.5552 33.6383 21.9891 32.3471L22.4923 32.8459C22.6684 33.0251 22.9073 33.115 23.14 33.115C23.379 33.115 23.6117 33.0251 23.7878 32.8459L25.7626 30.8761L25.9261 31.0415C26.1022 31.2182 26.3349 31.3107 26.5739 31.3107C26.7311 31.3107 26.8947 31.2704 27.0393 31.1862C27.1148 31.144 27.3475 31.0031 27.7123 30.7755L32.5235 35.5835C32.6996 35.7647 32.9386 35.8533 33.1713 35.8533C33.404 35.8533 33.643 35.7647 33.819 35.5835C35.9511 33.4572 37.473 27.5064 36.2907 23.8895C41.2151 18.9669 46.2716 11.769 46.2716 2.91946Z" fill="#B680F1" stroke="#B680F1"/>
<path d="M23.304 36.6697L19.418 40.5507C19.0608 40.9085 19.0608 41.4923 19.418 41.8501C19.5966 42.0293 19.8368 42.1199 20.0708 42.1199C20.3048 42.1199 20.5388 42.0293 20.7174 41.8501L24.6034 37.9697C24.9606 37.6113 24.9606 37.0281 24.6034 36.6697C24.2401 36.31 23.6612 36.31 23.304 36.6697Z" fill="#B680F1" stroke="#B680F1"/>
<path d="M36.1038 15.7524C35.6106 16.2468 34.9551 16.5184 34.2559 16.5184C33.5567 16.5184 32.9012 16.2468 32.4018 15.7524C31.3842 14.7323 31.3842 13.0705 32.4018 12.0504C32.9012 11.556 33.5567 11.2844 34.2559 11.2844C34.9551 11.2844 35.6106 11.556 36.1038 12.0504C36.6032 12.5455 36.8716 13.2016 36.8716 13.9014C36.8716 14.6012 36.6032 15.2573 36.1038 15.7524ZM37.4085 10.7513C36.5657 9.90788 35.4483 9.44528 34.2559 9.44528C33.0635 9.44528 31.946 9.90788 31.1033 10.7513C29.3678 12.4874 29.3678 15.3154 31.1033 17.054C31.946 17.8949 33.0635 18.3594 34.2559 18.3594C35.4483 18.3594 36.5657 17.8949 37.4085 17.054C38.2513 16.2106 38.7133 15.0925 38.7133 13.9014C38.7133 12.7103 38.2513 11.5922 37.4085 10.7513Z" fill="#B680F1" stroke="#B680F1"/>
</svg>
