<svg width="50" height="48" viewBox="0 0 50 48" fill="none" xmlns="http://www.w3.org/2000/svg">
<path d="M45.3956 18.7124L45.395 18.7108C45.1519 18.0463 44.5356 17.6074 43.8229 17.5978L43.8227 17.5978L30.0827 17.4204L24.6028 3.4649C24.6027 3.46474 24.6027 3.46459 24.6026 3.46443C24.3453 2.80407 23.7331 2.38757 23.0277 2.38757C22.3202 2.38757 21.705 2.80133 21.452 3.46517C21.4516 3.46613 21.4513 3.46708 21.4509 3.46804L15.9777 17.4204L2.1754 17.5978L2.17506 17.5978C1.46694 17.6074 0.851808 18.0469 0.608783 18.7093C0.359184 19.3806 0.547052 20.1003 1.08968 20.5656C1.09022 20.5661 1.09076 20.5665 1.09129 20.567L11.5836 29.6891L8.39694 43.4207C8.39693 43.4207 8.39691 43.4208 8.39689 43.4209C8.39688 43.4209 8.39687 43.421 8.39685 43.421C8.27922 43.9267 8.39725 44.4501 8.71562 44.8528L8.71744 44.8551C9.04007 45.2584 9.53699 45.5 10.0504 45.5C10.3533 45.5 10.656 45.4128 10.9187 45.2532C10.919 45.2531 10.9193 45.2529 10.9196 45.2527L23.0221 37.9525L35.0828 45.2475C35.0831 45.2477 35.0835 45.2479 35.0838 45.2481C35.3473 45.4089 35.6502 45.4964 35.958 45.4964C36.4689 45.4964 36.967 45.2567 37.2862 44.8521C37.6152 44.4447 37.7211 43.9221 37.613 43.4269L37.6116 43.4205L37.6116 43.4205L34.4248 29.689L44.9148 20.5651L45.3956 18.7124ZM45.3956 18.7124C45.6377 19.3815 45.4512 20.099 44.9151 20.5648L45.3956 18.7124ZM22.7694 34.6759L23.0281 34.52L23.2865 34.6763L34.0787 41.2059L31.2319 28.9247L31.1641 28.6319L31.3909 28.4346L40.5202 20.4935L28.4058 20.3365L28.0697 20.3322L27.9468 20.0194L23.0279 7.49403L18.1137 20.0197L17.9909 20.3327L17.6547 20.3371L5.48413 20.4936L14.6225 28.4344L14.8497 28.6318L14.7816 28.925L11.9249 41.216L22.7694 34.6759Z" fill="#B680F1" stroke="#B680F1"/>
</svg>
