<svg width="34" height="34" viewBox="0 0 34 34" fill="none" xmlns="http://www.w3.org/2000/svg">
<path opacity="0.8" fill-rule="evenodd" clip-rule="evenodd" d="M29.0859 1.0625C31.3598 1.0625 33.2031 2.99013 33.2031 5.24194V29.0859C33.2031 31.423 31.2746 33.2031 29.0859 33.2031H5.11743C2.84169 33.2031 1.0625 31.3359 1.0625 29.0859V5.24194C1.0625 3.079 2.75837 1.0625 5.11743 1.0625H29.0859ZM31.0781 5.24194C31.0781 4.12134 30.1443 3.1875 29.0859 3.1875H5.11743C4.05908 3.1875 3.1875 4.12134 3.1875 5.24194V29.0859C3.1875 30.2065 4.05908 31.0781 5.11743 31.0781H29.0859C30.1443 31.0781 31.0781 30.2065 31.0781 29.0859V5.24194Z" fill="black"/>
<g opacity="0.8">
<path d="M11.9033 9.59985C11.9033 10.5201 11.3789 11.317 10.6124 11.7083C10.2899 11.8728 9.92468 11.9656 9.5376 11.9656C9.13208 11.9656 8.75385 11.8728 8.4223 11.7083C7.63404 11.317 7.10962 10.5201 7.10962 9.59985C7.10962 8.29248 8.16797 7.17188 9.5376 7.17188C10.845 7.17188 11.9033 8.29248 11.9033 9.59985Z" fill="black"/>
<path d="M20.2288 13.8333L20.2539 13.8227C20.7916 13.5977 21.4141 13.4597 22.1133 13.4597C26.2844 13.4597 27.0938 16.2612 27.0938 19.8098V27.0938H22.9226V20.6191C22.9226 19.125 22.9226 17.1328 20.8059 17.1328C20.3667 17.1328 20.0033 17.2011 19.7031 17.3245C19.4415 17.432 19.2278 17.5813 19.0536 17.7637C18.4364 18.41 18.3157 19.4714 18.3157 20.5569V27.0938H14.2068V13.8333H18.1289V15.6387H18.1912C18.5518 14.9576 19.2476 14.2506 20.2288 13.8333Z" fill="black"/>
<path d="M7.48315 13.8333H11.592V27.0938H7.48315V13.8333Z" fill="black"/>
</g>
</svg>
