<svg width="34" height="34" viewBox="0 0 34 34" fill="none" xmlns="http://www.w3.org/2000/svg">
<g clip-path="url(#clip0_73_24)">
<path d="M25.8 30.2L25.0828 31.0338C25.2918 31.2128 25.5602 31.307 25.8352 31.2978L25.8 30.2ZM23.4548 26.4336C23.2739 26.2046 23.0095 26.0568 22.7197 26.0228C22.4298 25.9888 22.1383 26.0712 21.9093 26.2521C21.6803 26.433 21.5325 26.6974 21.4985 26.9873C21.4644 27.2771 21.5469 27.5686 21.7278 27.7976L23.4548 26.4336ZM24.3304 25.5316L23.9476 24.502C23.9329 24.5069 23.9182 24.5121 23.9036 24.5174L24.3304 25.5316ZM20.5068 26.6668L20.322 25.58L20.3044 25.5822L20.5068 26.6668ZM13.678 26.6404L13.469 27.7184L13.4756 27.7206L13.678 26.6404ZM7.87662 24.6098L7.26502 25.5228C7.28855 25.5392 7.31277 25.5547 7.33762 25.569L7.87662 24.6098ZM7.63902 24.4778L8.24842 23.5626C8.2103 23.5374 8.17062 23.5146 8.12962 23.4944L7.63902 24.4778ZM7.53342 24.3986L8.31002 23.6198C8.23813 23.5481 8.15669 23.4867 8.06802 23.4372L7.53342 24.3986ZM12.2722 27.7426C12.4531 27.5136 12.5356 27.2221 12.5015 26.9323C12.4675 26.6424 12.3197 26.378 12.0907 26.1971C11.8617 26.0162 11.5702 25.9338 11.2804 25.9678C10.9905 26.0018 10.7261 26.1496 10.5452 26.3786L12.2722 27.7426ZM8.20002 30.2L8.16482 31.3C8.44503 31.309 8.71809 31.2106 8.92822 31.025L8.20002 30.2ZM1.60002 25.2434H0.500016C0.499695 25.3023 0.504109 25.3612 0.513216 25.4194L1.60002 25.2434ZM5.39722 6.56982L4.73722 5.68982C4.56926 5.81613 4.441 5.98791 4.36762 6.18482L5.39722 6.56982ZM12.8068 3.80002L13.9024 3.69662C13.8771 3.42802 13.754 3.17809 13.5565 2.99434C13.3589 2.81059 13.1007 2.70585 12.831 2.70002L12.8068 3.80002ZM11.9752 6.67322C12.0029 6.96379 12.1449 7.23145 12.37 7.41732C12.5951 7.60319 12.8847 7.69204 13.1753 7.66432C13.4659 7.63661 13.7335 7.4946 13.9194 7.26954C14.1053 7.04447 14.1941 6.75479 14.1664 6.46422L11.9752 6.67322ZM19.7324 6.53462C19.6954 6.82403 19.7748 7.1163 19.9532 7.34713C20.1317 7.57797 20.3945 7.72847 20.6839 7.76552C20.9733 7.80257 21.2656 7.72314 21.4964 7.5447C21.7273 7.36626 21.8778 7.10343 21.9148 6.81402L19.7324 6.53462ZM21.1932 3.80002L21.169 2.70002C20.9058 2.70576 20.6534 2.80571 20.4576 2.98172C20.2618 3.15772 20.1357 3.39811 20.102 3.65922L21.1932 3.80002ZM28.6028 6.56982L29.6324 6.18482C29.559 5.98791 29.4308 5.81613 29.2628 5.68982L28.6028 6.56982ZM32.4 25.2434L33.4868 25.4194C33.496 25.3612 33.5004 25.3023 33.5 25.2434H32.4ZM14.7582 19.86L13.6582 19.8424V19.86H14.7582ZM25.8 30.2L26.5172 29.3662L26.5128 29.3618C26.4795 29.3351 26.4472 29.3073 26.416 29.2782C26.017 28.9329 25.6239 28.5808 25.2368 28.2222C24.5218 27.5666 23.7848 26.8538 23.4548 26.4336L21.7278 27.7976C22.1854 28.3784 23.0544 29.2056 23.7474 29.8436C24.177 30.2382 24.6119 30.6269 25.052 31.0096L25.074 31.0272L25.0806 31.0316L25.8 30.2ZM26.7592 23.0588C25.7472 23.7254 24.7924 24.1874 23.9476 24.502L24.7132 26.5634C25.8581 26.1325 26.9504 25.573 27.9692 24.8958L26.7592 23.0588ZM23.9058 24.5174C22.7562 25.009 21.5536 25.3663 20.322 25.5822L20.6916 27.7514C22.0886 27.5071 23.4528 27.1025 24.7572 26.5458L23.9058 24.5174ZM20.3044 25.5844C18.1801 25.9751 16.0015 25.9662 13.8804 25.558L13.4756 27.7206C15.8642 28.1788 18.3173 28.1878 20.7092 27.747L20.3044 25.5844ZM13.887 25.5602C12.6284 25.3139 11.395 24.953 10.202 24.4822L9.40122 26.5304C10.5276 26.9704 11.8872 27.4148 13.469 27.7184L13.887 25.5602ZM10.202 24.4822C9.58748 24.2463 8.98988 23.9684 8.41342 23.6506L7.33762 25.569C8.05482 25.9716 8.76322 26.2818 9.40122 26.5304L10.202 24.4822ZM8.48602 23.6946C8.4104 23.6438 8.33096 23.6012 8.24842 23.5626C8.22422 23.545 8.20442 23.5406 8.24842 23.5626L7.02742 25.393C7.10332 25.4434 7.18272 25.4882 7.26502 25.5272C7.31122 25.5492 7.29142 25.5426 7.26502 25.5228L8.48602 23.6946ZM8.12962 23.4944C8.19587 23.5276 8.2567 23.5706 8.31002 23.622L6.75462 25.1774C6.80522 25.228 6.93282 25.3534 7.14622 25.4634L8.12962 23.4944ZM8.06802 23.4372C7.85846 23.3212 7.653 23.1979 7.45202 23.0676L7.42782 23.05C7.42855 23.05 7.42708 23.05 7.42782 23.05L6.79422 23.952L6.16502 24.8518L6.16722 24.854L6.17162 24.8584L6.18702 24.8672L6.23322 24.898L6.39822 25.0058C6.53902 25.0938 6.74142 25.217 6.99882 25.36L8.06802 23.4372ZM10.5452 26.3808C10.2108 26.8054 9.46942 27.5358 8.75662 28.2046C8.36641 28.5694 7.97185 28.9295 7.57302 29.2848L7.49822 29.353L7.47622 29.3706L7.47402 29.375H7.47182L8.20002 30.2L8.92822 31.025L8.93042 31.0228L8.93702 31.0184L8.95902 30.9986L9.03822 30.9282C9.44889 30.5597 9.85591 30.1872 10.2592 29.8106C10.9522 29.1594 11.8168 28.3212 12.2722 27.7426L10.5452 26.3808ZM8.23522 29.1C5.67002 29.0186 4.32362 27.9538 3.59322 26.988C3.18695 26.4487 2.88819 25.8362 2.71322 25.184C2.70261 25.1432 2.69307 25.1021 2.68462 25.0608V25.0652L1.60002 25.2434C0.513216 25.4194 0.513216 25.4172 0.515416 25.4194V25.4326C0.531505 25.5267 0.552062 25.6199 0.577016 25.712C0.823603 26.6534 1.25183 27.5375 1.83762 28.3146C2.94862 29.782 4.90222 31.1966 8.16482 31.3L8.23522 29.1ZM2.70002 25.2434C2.70002 21.136 3.62402 16.5754 4.56342 13.0026C5.06185 11.1104 5.63132 9.23761 6.27062 7.38822C6.31893 7.25153 6.36806 7.11513 6.41802 6.97902L6.42682 6.95702L5.39722 6.56982L4.36542 6.18482L4.36322 6.19362L4.35442 6.21782C4.29996 6.36389 4.24715 6.51056 4.19602 6.65782C3.53685 8.56294 2.94976 10.4922 2.43602 12.4416C1.47462 16.0826 0.500016 20.8566 0.500016 25.2434H2.70002ZM6.05722 7.44982C7.81722 6.12982 9.52662 5.49182 10.7872 5.18382C11.408 5.03248 12.0413 4.93822 12.6792 4.90222C12.7151 4.90089 12.7511 4.90016 12.787 4.90002L12.8068 3.80002L12.831 2.70002H12.82C12.7995 2.69968 12.7789 2.69968 12.7584 2.70002H12.6088C12.4325 2.70642 12.2564 2.71816 12.0808 2.73522C11.4691 2.7945 10.8625 2.89817 10.2658 3.04542C8.26347 3.54273 6.38272 4.44082 4.73722 5.68542L6.05722 7.44982ZM11.7112 3.90342L11.9752 6.67322L14.1664 6.46422L13.9024 3.69662L11.7112 3.90342ZM21.9148 6.81402L22.2844 3.94082L20.102 3.65922L19.7324 6.53462L21.9148 6.81402ZM21.1932 3.80002L21.2152 4.90002H21.213C21.2489 4.89825 21.2849 4.89825 21.3208 4.90002C21.4044 4.90442 21.5408 4.91102 21.7146 4.92862C22.0666 4.95942 22.5814 5.03202 23.2128 5.18602C24.9262 5.61329 26.5353 6.38339 27.9428 7.44982L29.2628 5.68982C27.6173 4.44516 25.7366 3.54707 23.7342 3.04982C23.1376 2.9018 22.531 2.7974 21.9192 2.73742C21.6727 2.71448 21.4254 2.702 21.1778 2.70002H21.169L21.1932 3.80002ZM28.6028 6.56982L27.571 6.95262L27.5732 6.95922L27.582 6.97902L27.6106 7.06042L27.7272 7.38822C28.3672 9.2376 28.9374 11.1104 29.4366 13.0026C30.3782 16.5754 31.3 21.136 31.3 25.2434H33.5C33.5 20.8566 32.5232 16.0826 31.564 12.4416C31.0501 10.4923 30.463 8.56299 29.804 6.65782C29.7629 6.54173 29.7211 6.42586 29.6786 6.31022L29.6456 6.21782L29.6368 6.19582L29.6346 6.18702L28.6028 6.56982ZM32.4 25.2434L31.3154 25.0674V25.0608L31.311 25.0784L31.289 25.1818C31.2626 25.2808 31.223 25.4304 31.1548 25.6152C31.0184 25.9892 30.7874 26.4864 30.4068 26.988C29.6764 27.9538 28.33 29.0186 25.7648 29.1L25.8352 31.3C29.0978 31.1966 31.0492 29.782 32.1624 28.3168C32.7484 27.539 33.1766 26.6542 33.423 25.712C33.4446 25.6261 33.4637 25.5395 33.4802 25.4524L33.4846 25.4304V25.4216C33.4846 25.4194 33.4846 25.4172 32.4 25.2434ZM12.0698 15.834C9.86542 15.834 8.27922 17.7414 8.27922 19.86H10.4792C10.4792 18.7644 11.2646 18.034 12.0698 18.034V15.834ZM8.27922 19.86C8.27922 21.9874 9.89842 23.886 12.0698 23.886V21.686C11.2844 21.686 10.4792 20.9512 10.4792 19.86H8.27922ZM12.0698 23.886C14.2698 23.886 15.8582 21.9808 15.8582 19.86H13.6582C13.6582 20.96 12.8728 21.686 12.0698 21.686V23.886ZM15.856 19.882C15.8912 17.7304 14.2566 15.834 12.0698 15.834L12.0676 18.0362C12.886 18.0362 13.6736 18.7798 13.656 19.8446L15.856 19.882ZM21.6926 15.834C19.4882 15.8362 17.902 17.7436 17.902 19.8622H20.102C20.102 18.7666 20.8874 18.0362 21.6926 18.0362V15.834ZM17.902 19.8644C17.902 21.9918 19.5212 23.8904 21.6926 23.8904V21.6904C20.9072 21.6904 20.102 20.9556 20.102 19.8644H17.902ZM21.6926 23.8904C23.8926 23.8904 25.481 21.9852 25.481 19.8644H23.281C23.281 20.9644 22.4956 21.6904 21.6926 21.6904V23.8904ZM25.481 19.8644C25.481 17.7458 23.8948 15.8384 21.6926 15.8384V18.0362C22.4956 18.0362 23.281 18.7688 23.281 19.8644H25.481ZM8.72802 10.268C11.9026 8.53662 14.4898 7.72922 17.0066 7.72702C19.5256 7.72702 22.1062 8.53002 25.2742 10.2658L26.3302 8.33862C22.9818 6.50162 20.0272 5.52482 17.0066 5.52702C13.986 5.52702 11.0292 6.50602 7.67642 8.33642L8.72802 10.268Z" fill="#484848"/>
</g>
<defs>
<clipPath id="clip0_73_24">
<rect width="33" height="33" fill="white" transform="translate(0.5 0.5)"/>
</clipPath>
</defs>
</svg>
