<svg width="49" height="48" viewBox="0 0 49 48" fill="none" xmlns="http://www.w3.org/2000/svg">
<path d="M34.9914 44.141H25.4323C24.8806 42.3901 22.8778 36.4973 20.2109 33.8314C19.3627 33.0431 18.9847 31.0802 19.5416 30.3863C20.0014 29.8192 21.3246 30.185 23.0259 31.3187V34.5855C23.0259 34.9656 23.3223 35.265 23.7003 35.265C24.0784 35.265 24.385 34.9656 24.385 34.5855V19.4488C24.385 19.153 24.4973 18.8909 24.6864 18.6947C24.7324 18.6539 24.7733 18.6161 24.8192 18.5788C25.0083 18.4434 25.2433 18.3632 25.4987 18.3632C25.8411 18.3632 26.1476 18.5215 26.3417 18.7698C26.4899 18.9589 26.5767 19.1903 26.5767 19.4488V20.5493V29.3129C26.5767 29.6874 26.8833 29.9924 27.2563 29.9924C27.4913 29.9924 27.6854 29.8693 27.8081 29.6946C27.8847 29.5842 27.9409 29.4575 27.9409 29.3114V25.7969C27.9409 25.1996 28.4263 24.7143 29.0598 24.7143C29.6524 24.7143 30.1378 25.1996 30.1378 25.7969V27.35V30.0885C30.1378 30.465 30.4443 30.768 30.8173 30.768C31.1953 30.768 31.5019 30.465 31.5019 30.0885V27.35C31.5019 26.7543 31.9873 26.2695 32.6259 26.2695C33.2186 26.2695 33.7039 26.7543 33.7039 27.35V28.9349V30.9519C33.7039 31.3264 34.0105 31.6309 34.3834 31.6309C34.7615 31.6309 35.0629 31.3264 35.0629 30.9519V28.9349C35.0629 28.3396 35.5483 27.8543 36.1818 27.8543C36.7796 27.8543 37.2701 28.3396 37.2701 28.9349V34.4802C37.0299 35.2829 35.3337 41.0975 34.9914 44.141ZM38.6291 28.9349C38.6291 27.5886 37.5306 26.4942 36.1461 26.4942C35.7271 26.4942 35.3388 26.6097 34.9965 26.7952C34.7411 25.7167 33.7703 24.9089 32.585 24.9089C32.1661 24.9089 31.7676 25.0264 31.4202 25.2154C31.1596 24.1512 30.1991 23.3537 29.024 23.3537C28.6306 23.3537 28.2679 23.4554 27.9358 23.6199V20.7649V19.4488C27.9358 19.2848 27.9204 19.128 27.8898 18.9747C27.7365 18.1849 27.2001 17.5319 26.4695 17.2146C26.4286 17.1952 26.3826 17.1794 26.3417 17.163C26.071 17.0578 25.7746 17.0047 25.463 17.0047C25.2382 17.0047 25.0236 17.0363 24.8192 17.0884C24.6762 17.1309 24.5331 17.1845 24.4054 17.2468C23.5828 17.6372 23.0259 18.4791 23.0259 19.4488V29.7104C20.4254 28.2022 19.1277 28.7407 18.484 29.5321C17.3753 30.9069 18.0037 33.6388 19.2657 34.8103C22.091 37.631 24.2572 44.938 24.2777 45.0116C24.3645 45.3023 24.6302 45.5 24.9317 45.5H35.6147C35.9775 45.5 36.2789 45.2144 36.2942 44.8506C36.4168 42.1173 38.578 34.8547 38.5984 34.7817C38.6035 34.7587 38.5984 34.7337 38.6035 34.7086C38.6137 34.6677 38.6291 34.6304 38.6291 34.5875V28.9349Z" fill="#B680F1" stroke="#B680F1"/>
<path d="M29.4892 1.49997H17.5909C13.9593 1.49997 11 4.45823 11 8.09188V32.465C11 36.1012 13.9593 39.059 17.5909 39.059H19.939C20.3719 39.059 20.7234 38.708 20.7234 38.2761C20.7234 37.8432 20.3719 37.4937 19.939 37.4937H17.5909C15.09 37.4937 13.0068 35.6479 12.6299 33.2463H16.3481C16.781 33.2463 17.1325 32.8969 17.1325 32.4635C17.1325 32.0321 16.781 31.6806 16.3481 31.6806H12.5637V8.09188C12.5637 5.32106 14.8201 3.06569 17.5909 3.06569H29.4892C32.26 3.06569 34.5164 5.32106 34.5164 8.09188V24.561C34.5164 24.9924 34.8678 25.3434 35.2957 25.3434C35.7286 25.3434 36.0801 24.9924 36.0801 24.561V8.09188C36.0801 4.45823 33.1259 1.49997 29.4892 1.49997Z" fill="#B680F1" stroke="#B680F1"/>
<path d="M26.2138 6.07397H20.8637C20.4305 6.07397 20.0829 5.72285 20.0829 5.29111C20.0829 4.85787 20.4305 4.50825 20.8637 4.50825H26.2138C26.647 4.50825 26.9946 4.85787 26.9946 5.29111C26.9946 5.72285 26.647 6.07397 26.2138 6.07397Z" fill="#B680F1" stroke="#B680F1"/>
</svg>
