<svg width="396" height="355" viewBox="0 0 396 355" fill="none" xmlns="http://www.w3.org/2000/svg">
<path d="M70 9L18 107.5H78L32 191H59L15 274.5H205.5L251 338.5L381.5 95H329.5L373.5 9H70Z" stroke="#6E00E3" stroke-width="17"/>
<path d="M189.5 90H104M89.5 173.5L44.5 256.5L128.75 258H215L249 304.5L353.5 110H301.5L345 26.5H80.5L47 90H104M89.5 173.5H60L104 90M89.5 173.5H174.5" stroke="black" stroke-width="20"/>
<path d="M232 122L253.5 80H176L153 122H232Z" fill="black"/>
<path d="M239.5 205.5L261 163.5H157.5L134.5 205.5H239.5Z" fill="black"/>
</svg>
