<svg width="512" height="512" viewBox="0 0 512 512" fill="none" xmlns="http://www.w3.org/2000/svg">
<g clip-path="url(#clip0_85_22)">
<path d="M85.9633 37L16.9193 167.785H96.5855L35.5081 278.654H71.3579L12.936 389.523H265.876L326.29 474.5L499.564 151.188H430.52L488.941 37H85.9633Z" stroke="#6E00E3" stroke-width="22.5721"/>
<path d="M55.4249 144.549L99.9052 60.2361H451.1L393.342 171.105H462.386L323.634 429.356L278.49 367.615H163.97L52.1055 365.623L111.855 255.418H72.6859L131.108 144.549H55.4249Z" fill="white"/>
<path d="M244.632 144.549H131.108M111.855 255.418L52.1055 365.623L163.97 367.615H278.49L323.634 429.356L462.386 171.105H393.342L451.1 60.2361H99.9052L55.4249 144.549H131.108M111.855 255.418H72.6859L131.108 144.549M111.855 255.418H224.715" stroke="black" stroke-width="26.5554"/>
<path d="M301.062 187.038L329.609 131.272H226.707L196.168 187.038H301.062Z" fill="black"/>
<path d="M311.02 297.907L339.567 242.14H202.143L171.604 297.907H311.02Z" fill="black"/>
</g>
<defs>
<clipPath id="clip0_85_22">
<rect width="512" height="512" fill="white"/>
</clipPath>
</defs>
</svg>
