<?xml version="1.0" standalone="no"?>
<!DOCTYPE svg PUBLIC "-//W3C//DTD SVG 20010904//EN"
 "http://www.w3.org/TR/2001/REC-SVG-20010904/DTD/svg10.dtd">
<svg version="1.0" xmlns="http://www.w3.org/2000/svg"
 width="700.000000pt" height="700.000000pt" viewBox="0 0 700.000000 700.000000"
 preserveAspectRatio="xMidYMid meet">
<metadata>
Created by potrace 1.14, written by Peter Selinger 2001-2017
</metadata>
<g transform="translate(0.000000,700.000000) scale(0.100000,-0.100000)"
fill="#000000" stroke="none">
<path d="M1050 6588 c-18 -35 -53 -101 -78 -148 -24 -47 -67 -128 -95 -180
-27 -52 -64 -122 -82 -155 -18 -33 -66 -125 -108 -205 -42 -80 -96 -183 -122
-230 -25 -47 -57 -107 -71 -135 -14 -27 -39 -77 -57 -110 -18 -33 -70 -132
-116 -220 -46 -88 -96 -182 -111 -210 -15 -27 -51 -95 -80 -150 -29 -55 -70
-132 -91 -172 -22 -40 -39 -84 -39 -98 l0 -25 525 0 c293 0 525 -4 525 -9 0
-5 -41 -82 -91 -172 -51 -90 -110 -198 -132 -239 -22 -41 -60 -111 -85 -155
-25 -44 -55 -98 -67 -120 -37 -68 -208 -378 -232 -420 -12 -22 -26 -47 -30
-55 -3 -8 -46 -86 -95 -173 -49 -87 -86 -161 -84 -165 2 -4 112 -7 244 -7
l241 0 -63 -120 c-34 -66 -86 -165 -116 -220 -29 -55 -74 -140 -100 -190 -26
-49 -65 -124 -87 -165 -22 -41 -68 -129 -103 -195 -34 -66 -84 -160 -110 -210
-148 -281 -140 -260 -140 -341 l0 -74 1778 0 1777 0 135 -190 c74 -105 160
-226 191 -268 31 -42 177 -247 324 -454 147 -208 270 -378 274 -378 3 0 17 21
31 47 14 27 45 86 71 133 25 47 66 123 91 170 25 47 76 141 113 210 38 69 75
139 83 155 13 26 68 129 177 330 18 33 51 96 75 140 53 100 103 192 145 270
18 33 56 105 85 160 30 55 66 123 81 150 15 28 37 68 48 90 11 22 47 90 80
150 33 61 75 139 94 175 19 36 114 213 211 393 97 181 176 330 176 332 0 2 13
26 28 52 16 26 55 98 87 158 32 61 75 142 95 180 21 39 57 106 80 149 23 44
48 89 55 100 7 12 38 71 70 131 32 61 104 196 160 300 56 105 124 231 150 280
26 50 64 119 83 155 19 36 57 108 85 160 27 52 54 99 58 104 5 6 9 49 9 97 l0
86 -272 1 c-150 0 -344 1 -431 1 l-158 1 142 278 c78 152 173 338 212 412 38
74 148 290 245 480 96 190 179 349 183 354 33 37 103 36 -2915 36 l-2924 0
-32 -62z"/>
</g>
</svg>
